<svg xmlns="http://www.w3.org/2000/svg" width="679" height="100" fill="none"><path fill="#336AEA" d="M178.202 63.083c-.286-.286-.095-.857.38-.857h1.998c16.271-1.617 29.877-12.178 29.877-30.827C210.457 9.895 193.14 0 173.254 0H80.295c-1.237 0-2.283 1.047-2.283 2.284V97.62c0 1.237 1.046 2.284 2.283 2.284h29.686c1.237 0 2.284-1.047 2.284-2.284V67.174c0-1.237 1.046-2.284 2.283-2.284h19.315a9.522 9.522 0 0 1 7.041 3.14l27.498 31.018c.57.286 1.141.476 1.712.761h39.201c1.998 0 3.045-2.378 1.617-3.805l-32.73-32.921Zm-12.369-20.457h-51.38c-1.237 0-2.283-1.047-2.283-2.284V25.88c0-1.237 1.046-2.284 2.283-2.284h50.618c7.232 0 11.989 3.521 11.989 9.23 0 6.47-4.377 9.8-11.227 9.8ZM553.469.098h-29.685c-1.237 0-2.284 1.046-2.284 2.283v63.273c0 1.237 1.047 2.284 2.284 2.284h29.685c1.237 0 2.284-1.047 2.284-2.284V2.381c-.095-1.237-1.047-2.283-2.284-2.283ZM553.469 81.348h-29.685c-1.237 0-2.284 1.046-2.284 2.283v14.082c0 1.237 1.047 2.284 2.284 2.284h29.685c1.237 0 2.284-1.047 2.284-2.284V83.631c-.095-1.237-1.047-2.283-2.284-2.283ZM675.638 96.958l-38.154-50.524c-.857-1.141-.762-2.664.19-3.71l36.061-39.582c1.046-1.141.19-2.95-1.332-2.95h-31.209c-.856 0-1.617.381-2.188.952l-34.824 38.25a.726.726 0 0 1-.476.19h-1.237c-.285 0-.57-.286-.57-.571V2.19a2.112 2.112 0 0 0-2.094-2.093h-28.544a2.112 2.112 0 0 0-2.093 2.093v95.528c0 1.046.856 1.903 1.903 1.903h28.83a1.909 1.909 0 0 0 1.903-1.903V79.926c0-.761.285-1.427.761-1.998l12.654-13.51s.095-.191.381-.191h1.713c.19 0 .38.19.38.19l25.5 34.063c.57.761 1.427 1.142 2.378 1.142h28.639c1.523 0 2.284-1.618 1.428-2.664ZM256.614 22.933h29.02c1.237 0 2.283-1.047 2.283-2.284V2.381c0-1.237-1.046-2.283-2.283-2.283h-60.038c-1.237 0-2.284 1.046-2.284 2.283V97.72c0 1.237 1.047 2.283 2.284 2.283h60.038c1.237 0 2.283-1.046 2.283-2.283V79.45c0-1.237-1.046-2.284-2.283-2.284h-29.21c-1.237 0-2.284-1.047-2.284-2.284V62.99c0-1.332 1.142-2.474 2.474-2.474h29.02c1.237 0 2.283-1.046 2.283-2.283V40.345c0-1.237-1.046-2.284-2.283-2.284h-29.02c-1.332 0-2.474-1.141-2.474-2.473V25.312c0-1.332 1.142-2.379 2.474-2.379ZM334.641 22.933h29.02c1.237 0 2.284-1.047 2.284-2.284V2.381c0-1.237-1.047-2.283-2.284-2.283h-60.038c-1.237 0-2.283 1.046-2.283 2.283V97.72c0 1.237 1.046 2.283 2.283 2.283h60.038c1.237 0 2.284-1.046 2.284-2.283V79.45c0-1.237-1.047-2.284-2.284-2.284h-29.21c-1.237 0-2.283-1.047-2.283-2.284V62.99c0-1.332 1.141-2.474 2.473-2.474h29.02c1.237 0 2.284-1.046 2.284-2.283V40.345c0-1.237-1.047-2.284-2.284-2.284h-29.02c-1.332 0-2.473-1.141-2.473-2.473V25.312c0-1.332 1.141-2.379 2.473-2.379ZM33.301 22.933h29.02c1.237 0 2.284-1.047 2.284-2.284V2.381c0-1.237-1.047-2.283-2.284-2.283H2.284C1.047.098 0 1.144 0 2.38V97.72c0 1.237 1.047 2.283 2.284 2.283h26.26c1.237 0 2.284-1.046 2.284-2.283V63.085c0-1.332 1.142-2.474 2.473-2.474h29.02c1.237 0 2.284-1.046 2.284-2.283V40.44c0-1.237-1.047-2.283-2.284-2.283h-29.02c-1.332 0-2.473-1.142-2.473-2.474V25.407c0-1.427 1.046-2.474 2.473-2.474ZM471.549.098h-89.914c-1.237 0-2.283 1.046-2.283 2.283V97.72c0 1.237 1.046 2.283 2.283 2.283h29.686c1.237 0 2.284-1.046 2.284-2.283V66.225c0-.666.475-1.142 1.141-1.142H471.644c22.836 0 40.152-11.893 40.152-32.92 0-21.79-17.316-32.065-40.247-32.065Zm-4.281 42.53h-51.38c-1.237 0-2.283-1.046-2.283-2.283V25.883c0-1.237 1.046-2.284 2.283-2.284h50.618c7.232 0 11.989 3.52 11.989 9.23 0 6.47-4.472 9.8-11.227 9.8Z"/></svg>